<svg xmlns="http://www.w3.org/2000/svg" width="514" height="280">
<defs>
    <style>
    text{font-family:sans-serif; font-size:10px; dominant-baseline:middle;}
    text.name{fill:#fff;font-weight:700;text-anchor:middle}
    rect.name{fill:#0b0c0c; stroke:#0b0c0c;}
    rect{fill:#fff;stroke:#b1b4b6;}
    text.field{fill:#0b0c0c;}
    text.datatype{fill:#0b0c0c;}
    .line{stroke:#0b0c0c;}
    </style>
    <marker id="start-dot" markerWidth="6" markerHeight="6" refX="4" refY="3" markerUnits="strokeWidth">
    <circle cx="3" cy="3" r="2" fill="#fff" stroke="#0b0c0c"/>
    </marker>
    <marker id="end-dot" markerWidth="6" markerHeight="6" refX="2" refY="3" markerUnits="strokeWidth">
    <circle cx="3" cy="3" r="2" fill="#0b0c0c" />
    </marker>
    </defs>
<path class="line" fill="none" stroke-width="2" marker-start="url(#start-dot)" marker-end="url(#end-dot)" d="M 297 70 C 257.0 70 257.0 30 217 30"/>
<g>
<rect x="0" y="0" width="217" height="20" class="name"/>
<text x="108" y="10" class="name">article-4-direction</text>
<rect x="0" y="20" width="162" height="20" class="field"/>
<rect x="162" y="20" width="55" height="20" class="datatype"/>
<text x="5" y="30" class="field">reference</text>
<text x="167" y="30" class="datatype">string</text>
<rect x="0" y="40" width="162" height="20" class="field"/>
<rect x="162" y="40" width="55" height="20" class="datatype"/>
<text x="5" y="50" class="field">name</text>
<text x="167" y="50" class="datatype">string</text>
<rect x="0" y="60" width="162" height="20" class="field"/>
<rect x="162" y="60" width="55" height="20" class="datatype"/>
<text x="5" y="70" class="field">description</text>
<text x="167" y="70" class="datatype">string</text>
<rect x="0" y="80" width="162" height="20" class="field"/>
<rect x="162" y="80" width="55" height="20" class="datatype"/>
<text x="5" y="90" class="field">documentation-url</text>
<text x="167" y="90" class="datatype">url</text>
<rect x="0" y="100" width="162" height="20" class="field"/>
<rect x="162" y="100" width="55" height="20" class="datatype"/>
<text x="5" y="110" class="field">document-url</text>
<text x="167" y="110" class="datatype">url</text>
<rect x="0" y="120" width="162" height="20" class="field"/>
<rect x="162" y="120" width="55" height="20" class="datatype"/>
<text x="5" y="130" class="field">notes</text>
<text x="167" y="130" class="datatype">text</text>
<rect x="0" y="140" width="162" height="20" class="field"/>
<rect x="162" y="140" width="55" height="20" class="datatype"/>
<text x="5" y="150" class="field">organisation</text>
<text x="167" y="150" class="datatype">curie</text>
<rect x="0" y="160" width="162" height="20" class="field"/>
<rect x="162" y="160" width="55" height="20" class="datatype"/>
<text x="5" y="170" class="field">entry-date</text>
<text x="167" y="170" class="datatype">datetime</text>
<rect x="0" y="180" width="162" height="20" class="field"/>
<rect x="162" y="180" width="55" height="20" class="datatype"/>
<text x="5" y="190" class="field">start-date</text>
<text x="167" y="190" class="datatype">datetime</text>
<rect x="0" y="200" width="162" height="20" class="field"/>
<rect x="162" y="200" width="55" height="20" class="datatype"/>
<text x="5" y="210" class="field">end-date</text>
<text x="167" y="210" class="datatype">datetime</text>
</g>
<g>
<rect x="297" y="0" width="217" height="20" class="name"/>
<text x="405" y="10" class="name">article-4-direction-area</text>
<rect x="297" y="20" width="162" height="20" class="field"/>
<rect x="459" y="20" width="55" height="20" class="datatype"/>
<text x="302" y="30" class="field">reference</text>
<text x="464" y="30" class="datatype">string</text>
<rect x="297" y="40" width="162" height="20" class="field"/>
<rect x="459" y="40" width="55" height="20" class="datatype"/>
<text x="302" y="50" class="field">name</text>
<text x="464" y="50" class="datatype">string</text>
<rect x="297" y="60" width="162" height="20" class="field"/>
<rect x="459" y="60" width="55" height="20" class="datatype"/>
<text x="302" y="70" class="field">article-4-direction</text>
<text x="464" y="70" class="datatype">reference</text>
<rect x="297" y="80" width="162" height="20" class="field"/>
<rect x="459" y="80" width="55" height="20" class="datatype"/>
<text x="302" y="90" class="field">article-4-direction-rules</text>
<text x="464" y="90" class="datatype">reference*</text>
<rect x="297" y="100" width="162" height="20" class="field"/>
<rect x="459" y="100" width="55" height="20" class="datatype"/>
<text x="302" y="110" class="field">uprn</text>
<text x="464" y="110" class="datatype">string</text>
<rect x="297" y="120" width="162" height="20" class="field"/>
<rect x="459" y="120" width="55" height="20" class="datatype"/>
<text x="302" y="130" class="field">address-text</text>
<text x="464" y="130" class="datatype">string</text>
<rect x="297" y="140" width="162" height="20" class="field"/>
<rect x="459" y="140" width="55" height="20" class="datatype"/>
<text x="302" y="150" class="field">geometry</text>
<text x="464" y="150" class="datatype">multipolygon</text>
<rect x="297" y="160" width="162" height="20" class="field"/>
<rect x="459" y="160" width="55" height="20" class="datatype"/>
<text x="302" y="170" class="field">document-url</text>
<text x="464" y="170" class="datatype">url</text>
<rect x="297" y="180" width="162" height="20" class="field"/>
<rect x="459" y="180" width="55" height="20" class="datatype"/>
<text x="302" y="190" class="field">notes</text>
<text x="464" y="190" class="datatype">text</text>
<rect x="297" y="200" width="162" height="20" class="field"/>
<rect x="459" y="200" width="55" height="20" class="datatype"/>
<text x="302" y="210" class="field">organisation</text>
<text x="464" y="210" class="datatype">curie</text>
<rect x="297" y="220" width="162" height="20" class="field"/>
<rect x="459" y="220" width="55" height="20" class="datatype"/>
<text x="302" y="230" class="field">entry-date</text>
<text x="464" y="230" class="datatype">datetime</text>
<rect x="297" y="240" width="162" height="20" class="field"/>
<rect x="459" y="240" width="55" height="20" class="datatype"/>
<text x="302" y="250" class="field">start-date</text>
<text x="464" y="250" class="datatype">datetime</text>
<rect x="297" y="260" width="162" height="20" class="field"/>
<rect x="459" y="260" width="55" height="20" class="datatype"/>
<text x="302" y="270" class="field">end-date</text>
<text x="464" y="270" class="datatype">datetime</text>
</g>
</svg>