<svg xmlns="http://www.w3.org/2000/svg" width="217" height="460">
<defs>
    <style>
    text{font-family:sans-serif; font-size:10px; dominant-baseline:middle;}
    text.name{fill:#fff;font-weight:700;text-anchor:middle}
    rect.name{fill:#0b0c0c; stroke:#0b0c0c;}
    rect{fill:#fff;stroke:#b1b4b6;}
    text.field{fill:#0b0c0c;}
    text.datatype{fill:#0b0c0c;}
    .line{stroke:#0b0c0c;}
    </style>
    <marker id="start-dot" markerWidth="6" markerHeight="6" refX="4" refY="3" markerUnits="strokeWidth">
    <circle cx="3" cy="3" r="2" fill="#fff" stroke="#0b0c0c"/>
    </marker>
    <marker id="end-dot" markerWidth="6" markerHeight="6" refX="2" refY="3" markerUnits="strokeWidth">
    <circle cx="3" cy="3" r="2" fill="#0b0c0c" />
    </marker>
    </defs>
<g>
<rect x="0" y="0" width="217" height="20" class="name"/>
<text x="108" y="10" class="name">brownfield-land</text>
<rect x="0" y="20" width="162" height="20" class="field"/>
<rect x="162" y="20" width="55" height="20" class="datatype"/>
<text x="5" y="30" class="field">SiteReference</text>
<text x="167" y="30" class="datatype">string</text>
<rect x="0" y="40" width="162" height="20" class="field"/>
<rect x="162" y="40" width="55" height="20" class="datatype"/>
<text x="5" y="50" class="field">SiteNameAddress</text>
<text x="167" y="50" class="datatype">string</text>
<rect x="0" y="60" width="162" height="20" class="field"/>
<rect x="162" y="60" width="55" height="20" class="datatype"/>
<text x="5" y="70" class="field">Deliverable</text>
<text x="167" y="70" class="datatype">flag</text>
<rect x="0" y="80" width="162" height="20" class="field"/>
<rect x="162" y="80" width="55" height="20" class="datatype"/>
<text x="5" y="90" class="field">HazardousSubstances</text>
<text x="167" y="90" class="datatype">flag</text>
<rect x="0" y="100" width="162" height="20" class="field"/>
<rect x="162" y="100" width="55" height="20" class="datatype"/>
<text x="5" y="110" class="field">Hectares</text>
<text x="167" y="110" class="datatype">decimal</text>
<rect x="0" y="120" width="162" height="20" class="field"/>
<rect x="162" y="120" width="55" height="20" class="datatype"/>
<text x="5" y="130" class="field">MinNetDwellings</text>
<text x="167" y="130" class="datatype">integer</text>
<rect x="0" y="140" width="162" height="20" class="field"/>
<rect x="162" y="140" width="55" height="20" class="datatype"/>
<text x="5" y="150" class="field">NetDwellingsRangeFrom</text>
<text x="167" y="150" class="datatype">integer</text>
<rect x="0" y="160" width="162" height="20" class="field"/>
<rect x="162" y="160" width="55" height="20" class="datatype"/>
<text x="5" y="170" class="field">NetDwellingsRangeTo</text>
<text x="167" y="170" class="datatype">integer</text>
<rect x="0" y="180" width="162" height="20" class="field"/>
<rect x="162" y="180" width="55" height="20" class="datatype"/>
<text x="5" y="190" class="field">OwnershipStatus</text>
<text x="167" y="190" class="datatype">reference</text>
<rect x="0" y="200" width="162" height="20" class="field"/>
<rect x="162" y="200" width="55" height="20" class="datatype"/>
<text x="5" y="210" class="field">PermissionDate</text>
<text x="167" y="210" class="datatype">datetime</text>
<rect x="0" y="220" width="162" height="20" class="field"/>
<rect x="162" y="220" width="55" height="20" class="datatype"/>
<text x="5" y="230" class="field">PermissionType</text>
<text x="167" y="230" class="datatype">reference</text>
<rect x="0" y="240" width="162" height="20" class="field"/>
<rect x="162" y="240" width="55" height="20" class="datatype"/>
<text x="5" y="250" class="field">PlanningHistory</text>
<text x="167" y="250" class="datatype">url*</text>
<rect x="0" y="260" width="162" height="20" class="field"/>
<rect x="162" y="260" width="55" height="20" class="datatype"/>
<text x="5" y="270" class="field">PlanningStatus</text>
<text x="167" y="270" class="datatype">reference</text>
<rect x="0" y="280" width="162" height="20" class="field"/>
<rect x="162" y="280" width="55" height="20" class="datatype"/>
<text x="5" y="290" class="field">SiteplanURL</text>
<text x="167" y="290" class="datatype">url</text>
<rect x="0" y="300" width="162" height="20" class="field"/>
<rect x="162" y="300" width="55" height="20" class="datatype"/>
<text x="5" y="310" class="field">GeoX</text>
<text x="167" y="310" class="datatype">longitude</text>
<rect x="0" y="320" width="162" height="20" class="field"/>
<rect x="162" y="320" width="55" height="20" class="datatype"/>
<text x="5" y="330" class="field">GeoY</text>
<text x="167" y="330" class="datatype">latitude</text>
<rect x="0" y="340" width="162" height="20" class="field"/>
<rect x="162" y="340" width="55" height="20" class="datatype"/>
<text x="5" y="350" class="field">Notes</text>
<text x="167" y="350" class="datatype">text</text>
<rect x="0" y="360" width="162" height="20" class="field"/>
<rect x="162" y="360" width="55" height="20" class="datatype"/>
<text x="5" y="370" class="field">OrganisationLabel</text>
<text x="167" y="370" class="datatype">string</text>
<rect x="0" y="380" width="162" height="20" class="field"/>
<rect x="162" y="380" width="55" height="20" class="datatype"/>
<text x="5" y="390" class="field">OrganisationURI</text>
<text x="167" y="390" class="datatype">url</text>
<rect x="0" y="400" width="162" height="20" class="field"/>
<rect x="162" y="400" width="55" height="20" class="datatype"/>
<text x="5" y="410" class="field">LastUpdatedDate</text>
<text x="167" y="410" class="datatype">datetime</text>
<rect x="0" y="420" width="162" height="20" class="field"/>
<rect x="162" y="420" width="55" height="20" class="datatype"/>
<text x="5" y="430" class="field">FirstAddedDate</text>
<text x="167" y="430" class="datatype">datetime</text>
<rect x="0" y="440" width="162" height="20" class="field"/>
<rect x="162" y="440" width="55" height="20" class="datatype"/>
<text x="5" y="450" class="field">EndDate</text>
<text x="167" y="450" class="datatype">datetime</text>
</g>
</svg>
