<svg xmlns="http://www.w3.org/2000/svg" width="802" height="280">
<defs>
<style>
text{font-family:sans-serif; font-size:10px; dominant-baseline:middle;}
text.name{fill:#fff;font-weight:700;text-anchor:middle}
rect.name{fill:#0b0c0c; stroke:#0b0c0c;}
rect{fill:#fff;stroke:#b1b4b6;}
text.field{fill:#0b0c0c;}
text.datatype{fill:#0b0c0c;}
.line{stroke:#0b0c0c;}
</style>
<marker id="start-dot" markerWidth="6" markerHeight="6" refX="4" refY="3" markerUnits="strokeWidth">
  <circle cx="3" cy="3" r="2" fill="#fff" stroke="#0b0c0c"/>
</marker>
<marker id="end-dot" markerWidth="6" markerHeight="6" refX="2" refY="3" markerUnits="strokeWidth">
  <circle cx="3" cy="3" r="2" fill="#0b0c0c" />
</marker>
</defs>
<path class="line" fill="none" stroke-width="2" marker-start="url(#start-dot)" marker-end="url(#end-dot)" d="M 294 70 C 254.0 70 254.0 30 214 30"/>
<path class="line" fill="none" stroke-width="2" marker-start="url(#start-dot)" marker-end="url(#end-dot)" d="M 588 70 C 401.0 70 401.0 30 214 30"/>
<g>
<rect x="0" y="0" width="214" height="20" class="name"/>
<text x="107" y="10" class="name">tree-preservation-order</text>
<rect x="0" y="20" width="162" height="20" class="field"/>
<rect x="162" y="20" width="52" height="20" class="datatype"/>
<text x="5" y="30" class="field">reference</text>
<text x="167" y="30" class="datatype">string</text>
<rect x="0" y="40" width="162" height="20" class="field"/>
<rect x="162" y="40" width="52" height="20" class="datatype"/>
<text x="5" y="50" class="field">name</text>
<text x="167" y="50" class="datatype">string</text>
<rect x="0" y="60" width="162" height="20" class="field"/>
<rect x="162" y="60" width="52" height="20" class="datatype"/>
<text x="5" y="70" class="field">documentation-url</text>
<text x="167" y="70" class="datatype">url</text>
<rect x="0" y="80" width="162" height="20" class="field"/>
<rect x="162" y="80" width="52" height="20" class="datatype"/>
<text x="5" y="90" class="field">document-url</text>
<text x="167" y="90" class="datatype">url</text>
<rect x="0" y="100" width="162" height="20" class="field"/>
<rect x="162" y="100" width="52" height="20" class="datatype"/>
<text x="5" y="110" class="field">notes</text>
<text x="167" y="110" class="datatype">string</text>
<rect x="0" y="120" width="162" height="20" class="field"/>
<rect x="162" y="120" width="52" height="20" class="datatype"/>
<text x="5" y="130" class="field">organisation</text>
<text x="167" y="130" class="datatype">string</text>
<rect x="0" y="140" width="162" height="20" class="field"/>
<rect x="162" y="140" width="52" height="20" class="datatype"/>
<text x="5" y="150" class="field">entry-date</text>
<text x="167" y="150" class="datatype">date</text>
<rect x="0" y="160" width="162" height="20" class="field"/>
<rect x="162" y="160" width="52" height="20" class="datatype"/>
<text x="5" y="170" class="field">start-date</text>
<text x="167" y="170" class="datatype">date</text>
<rect x="0" y="180" width="162" height="20" class="field"/>
<rect x="162" y="180" width="52" height="20" class="datatype"/>
<text x="5" y="190" class="field">end-date</text>
<text x="167" y="190" class="datatype">date</text>
</g>
<g>
<rect x="294" y="0" width="214" height="20" class="name"/>
<text x="401" y="10" class="name">tree-preservation-zone</text>
<rect x="294" y="20" width="162" height="20" class="field"/>
<rect x="456" y="20" width="52" height="20" class="datatype"/>
<text x="299" y="30" class="field">reference</text>
<text x="461" y="30" class="datatype">string</text>
<rect x="294" y="40" width="162" height="20" class="field"/>
<rect x="456" y="40" width="52" height="20" class="datatype"/>
<text x="299" y="50" class="field">name</text>
<text x="461" y="50" class="datatype">string</text>
<rect x="294" y="60" width="162" height="20" class="field"/>
<rect x="456" y="60" width="52" height="20" class="datatype"/>
<text x="299" y="70" class="field">tree-preservation-order</text>
<text x="461" y="70" class="datatype">reference</text>
<rect x="294" y="80" width="162" height="20" class="field"/>
<rect x="456" y="80" width="52" height="20" class="datatype"/>
<text x="299" y="90" class="field">geometry</text>
<text x="461" y="90" class="datatype">wkt</text>
<rect x="294" y="100" width="162" height="20" class="field"/>
<rect x="456" y="100" width="52" height="20" class="datatype"/>
<text x="299" y="110" class="field">notes</text>
<text x="461" y="110" class="datatype">string</text>
<rect x="294" y="120" width="162" height="20" class="field"/>
<rect x="456" y="120" width="52" height="20" class="datatype"/>
<text x="299" y="130" class="field">organisation</text>
<text x="461" y="130" class="datatype">string</text>
<rect x="294" y="140" width="162" height="20" class="field"/>
<rect x="456" y="140" width="52" height="20" class="datatype"/>
<text x="299" y="150" class="field">entry-date</text>
<text x="461" y="150" class="datatype">date</text>
<rect x="294" y="160" width="162" height="20" class="field"/>
<rect x="456" y="160" width="52" height="20" class="datatype"/>
<text x="299" y="170" class="field">start-date</text>
<text x="461" y="170" class="datatype">date</text>
<rect x="294" y="180" width="162" height="20" class="field"/>
<rect x="456" y="180" width="52" height="20" class="datatype"/>
<text x="299" y="190" class="field">end-date</text>
<text x="461" y="190" class="datatype">date</text>
</g>
<g>
<rect x="588" y="0" width="214" height="20" class="name"/>
<text x="695" y="10" class="name">tree</text>
<rect x="588" y="20" width="162" height="20" class="field"/>
<rect x="750" y="20" width="52" height="20" class="datatype"/>
<text x="593" y="30" class="field">reference</text>
<text x="755" y="30" class="datatype">string</text>
<rect x="588" y="40" width="162" height="20" class="field"/>
<rect x="750" y="40" width="52" height="20" class="datatype"/>
<text x="593" y="50" class="field">name</text>
<text x="755" y="50" class="datatype">string</text>
<rect x="588" y="60" width="162" height="20" class="field"/>
<rect x="750" y="60" width="52" height="20" class="datatype"/>
<text x="593" y="70" class="field">tree-preservation-order</text>
<text x="755" y="70" class="datatype">reference</text>
<rect x="588" y="80" width="162" height="20" class="field"/>
<rect x="750" y="80" width="52" height="20" class="datatype"/>
<text x="593" y="90" class="field">tree-preservation-order-tree</text>
<text x="755" y="90" class="datatype">string</text>
<rect x="588" y="100" width="162" height="20" class="field"/>
<rect x="750" y="100" width="52" height="20" class="datatype"/>
<text x="593" y="110" class="field">uprn</text>
<text x="755" y="110" class="datatype">string</text>
<rect x="588" y="120" width="162" height="20" class="field"/>
<rect x="750" y="120" width="52" height="20" class="datatype"/>
<text x="593" y="130" class="field">address-text</text>
<text x="755" y="130" class="datatype">string</text>
<rect x="588" y="140" width="162" height="20" class="field"/>
<rect x="750" y="140" width="52" height="20" class="datatype"/>
<text x="593" y="150" class="field">point</text>
<text x="755" y="150" class="datatype">wkt</text>
<rect x="588" y="160" width="162" height="20" class="field"/>
<rect x="750" y="160" width="52" height="20" class="datatype"/>
<text x="593" y="170" class="field">geometry</text>
<text x="755" y="170" class="datatype">wkt</text>
<rect x="588" y="180" width="162" height="20" class="field"/>
<rect x="750" y="180" width="52" height="20" class="datatype"/>
<text x="593" y="190" class="field">notes</text>
<text x="755" y="190" class="datatype">string</text>
<rect x="588" y="200" width="162" height="20" class="field"/>
<rect x="750" y="200" width="52" height="20" class="datatype"/>
<text x="593" y="210" class="field">organisation</text>
<text x="755" y="210" class="datatype">string</text>
<rect x="588" y="220" width="162" height="20" class="field"/>
<rect x="750" y="220" width="52" height="20" class="datatype"/>
<text x="593" y="230" class="field">entry-date</text>
<text x="755" y="230" class="datatype">date</text>
<rect x="588" y="240" width="162" height="20" class="field"/>
<rect x="750" y="240" width="52" height="20" class="datatype"/>
<text x="593" y="250" class="field">start-date</text>
<text x="755" y="250" class="datatype">date</text>
<rect x="588" y="260" width="162" height="20" class="field"/>
<rect x="750" y="260" width="52" height="20" class="datatype"/>
<text x="593" y="270" class="field">end-date</text>
<text x="755" y="270" class="datatype">date</text>
</g>
</svg>
