<svg xmlns="http://www.w3.org/2000/svg" width="838" height="360">
<defs>
    <style>
    text{font-family:sans-serif; font-size:10px; dominant-baseline:middle;}
    text.name{fill:#fff;font-weight:700;text-anchor:middle}
    rect.name{fill:#0b0c0c; stroke:#0b0c0c;}
    rect{fill:#fff;stroke:#b1b4b6;}
    text.field{fill:#0b0c0c;}
    text.datatype{fill:#0b0c0c;}
    .line{stroke:#0b0c0c;}
    </style>
    <marker id="start-dot" markerWidth="6" markerHeight="6" refX="4" refY="3" markerUnits="strokeWidth">
    <circle cx="3" cy="3" r="2" fill="#fff" stroke="#0b0c0c"/>
    </marker>
    <marker id="end-dot" markerWidth="6" markerHeight="6" refX="2" refY="3" markerUnits="strokeWidth">
    <circle cx="3" cy="3" r="2" fill="#0b0c0c" />
    </marker>
    </defs>
<g>
<rect x="0" y="0" width="226" height="20" class="name"/>
<text x="113" y="10" class="name">planning-application-decision</text>
<rect x="0" y="20" width="162" height="20" class="field"/>
<rect x="162" y="20" width="64" height="20" class="datatype"/>
<text x="5" y="30" class="field">reference</text>
<text x="167" y="30" class="datatype">string</text>
<rect x="0" y="40" width="162" height="20" class="field"/>
<rect x="162" y="40" width="64" height="20" class="datatype"/>
<text x="5" y="50" class="field">name</text>
<text x="167" y="50" class="datatype">string</text>
<rect x="0" y="60" width="162" height="20" class="field"/>
<rect x="162" y="60" width="64" height="20" class="datatype"/>
<text x="5" y="70" class="field">description</text>
<text x="167" y="70" class="datatype">string</text>
<rect x="0" y="80" width="162" height="20" class="field"/>
<rect x="162" y="80" width="64" height="20" class="datatype"/>
<text x="5" y="90" class="field">address-text</text>
<text x="167" y="90" class="datatype">string</text>
<rect x="0" y="100" width="162" height="20" class="field"/>
<rect x="162" y="100" width="64" height="20" class="datatype"/>
<text x="5" y="110" class="field">uprn</text>
<text x="167" y="110" class="datatype">reference</text>
<rect x="0" y="120" width="162" height="20" class="field"/>
<rect x="162" y="120" width="64" height="20" class="datatype"/>
<text x="5" y="130" class="field">geometry</text>
<text x="167" y="130" class="datatype">multipolygon</text>
<rect x="0" y="140" width="162" height="20" class="field"/>
<rect x="162" y="140" width="64" height="20" class="datatype"/>
<text x="5" y="150" class="field">point</text>
<text x="167" y="150" class="datatype">point</text>
<rect x="0" y="160" width="162" height="20" class="field"/>
<rect x="162" y="160" width="64" height="20" class="datatype"/>
<text x="5" y="170" class="field">documentation-url</text>
<text x="167" y="170" class="datatype">url</text>
<rect x="0" y="180" width="162" height="20" class="field"/>
<rect x="162" y="180" width="64" height="20" class="datatype"/>
<text x="5" y="190" class="field">planning-application-type</text>
<text x="167" y="190" class="datatype">reference</text>
<rect x="0" y="200" width="162" height="20" class="field"/>
<rect x="162" y="200" width="64" height="20" class="datatype"/>
<text x="5" y="210" class="field">planning-decision</text>
<text x="167" y="210" class="datatype">reference</text>
<rect x="0" y="220" width="162" height="20" class="field"/>
<rect x="162" y="220" width="64" height="20" class="datatype"/>
<text x="5" y="230" class="field">planning-decision-type</text>
<text x="167" y="230" class="datatype">reference</text>
<rect x="0" y="240" width="162" height="20" class="field"/>
<rect x="162" y="240" width="64" height="20" class="datatype"/>
<text x="5" y="250" class="field">notes</text>
<text x="167" y="250" class="datatype">text</text>
<rect x="0" y="260" width="162" height="20" class="field"/>
<rect x="162" y="260" width="64" height="20" class="datatype"/>
<text x="5" y="270" class="field">organisation</text>
<text x="167" y="270" class="datatype">curie</text>
<rect x="0" y="280" width="162" height="20" class="field"/>
<rect x="162" y="280" width="64" height="20" class="datatype"/>
<text x="5" y="290" class="field">entry-date</text>
<text x="167" y="290" class="datatype">datetime</text>
<rect x="0" y="300" width="162" height="20" class="field"/>
<rect x="162" y="300" width="64" height="20" class="datatype"/>
<text x="5" y="310" class="field">start-date</text>
<text x="167" y="310" class="datatype">datetime</text>
<rect x="0" y="320" width="162" height="20" class="field"/>
<rect x="162" y="320" width="64" height="20" class="datatype"/>
<text x="5" y="330" class="field">decision-date</text>
<text x="167" y="330" class="datatype">datetime</text>
<rect x="0" y="340" width="162" height="20" class="field"/>
<rect x="162" y="340" width="64" height="20" class="datatype"/>
<text x="5" y="350" class="field">end-date</text>
<text x="167" y="350" class="datatype">datetime</text>
</g>
<g>
<rect x="306" y="0" width="226" height="20" class="name"/>
<text x="419" y="10" class="name">planning-application-log</text>
<rect x="306" y="20" width="162" height="20" class="field"/>
<rect x="468" y="20" width="64" height="20" class="datatype"/>
<text x="311" y="30" class="field">reference</text>
<text x="473" y="30" class="datatype">string</text>
<rect x="306" y="40" width="162" height="20" class="field"/>
<rect x="468" y="40" width="64" height="20" class="datatype"/>
<text x="311" y="50" class="field">planning-application</text>
<text x="473" y="50" class="datatype">reference</text>
<rect x="306" y="60" width="162" height="20" class="field"/>
<rect x="468" y="60" width="64" height="20" class="datatype"/>
<text x="311" y="70" class="field">planning-application-status</text>
<text x="473" y="70" class="datatype">reference</text>
<rect x="306" y="80" width="162" height="20" class="field"/>
<rect x="468" y="80" width="64" height="20" class="datatype"/>
<text x="311" y="90" class="field">documentation-url</text>
<text x="473" y="90" class="datatype">url</text>
<rect x="306" y="100" width="162" height="20" class="field"/>
<rect x="468" y="100" width="64" height="20" class="datatype"/>
<text x="311" y="110" class="field">document-url</text>
<text x="473" y="110" class="datatype">url</text>
<rect x="306" y="120" width="162" height="20" class="field"/>
<rect x="468" y="120" width="64" height="20" class="datatype"/>
<text x="311" y="130" class="field">notes</text>
<text x="473" y="130" class="datatype">text</text>
<rect x="306" y="140" width="162" height="20" class="field"/>
<rect x="468" y="140" width="64" height="20" class="datatype"/>
<text x="311" y="150" class="field">organisation</text>
<text x="473" y="150" class="datatype">curie</text>
<rect x="306" y="160" width="162" height="20" class="field"/>
<rect x="468" y="160" width="64" height="20" class="datatype"/>
<text x="311" y="170" class="field">event-date</text>
<text x="473" y="170" class="datatype">datetime</text>
<rect x="306" y="180" width="162" height="20" class="field"/>
<rect x="468" y="180" width="64" height="20" class="datatype"/>
<text x="311" y="190" class="field">entry-date</text>
<text x="473" y="190" class="datatype">datetime</text>
<rect x="306" y="200" width="162" height="20" class="field"/>
<rect x="468" y="200" width="64" height="20" class="datatype"/>
<text x="311" y="210" class="field">start-date</text>
<text x="473" y="210" class="datatype">datetime</text>
<rect x="306" y="220" width="162" height="20" class="field"/>
<rect x="468" y="220" width="64" height="20" class="datatype"/>
<text x="311" y="230" class="field">end-date</text>
<text x="473" y="230" class="datatype">datetime</text>
</g>
<g>
<rect x="612" y="0" width="226" height="20" class="name"/>
<text x="725" y="10" class="name">planning-application-document</text>
<rect x="612" y="20" width="162" height="20" class="field"/>
<rect x="774" y="20" width="64" height="20" class="datatype"/>
<text x="617" y="30" class="field">reference</text>
<text x="779" y="30" class="datatype">string</text>
<rect x="612" y="40" width="162" height="20" class="field"/>
<rect x="774" y="40" width="64" height="20" class="datatype"/>
<text x="617" y="50" class="field">name</text>
<text x="779" y="50" class="datatype">string</text>
<rect x="612" y="60" width="162" height="20" class="field"/>
<rect x="774" y="60" width="64" height="20" class="datatype"/>
<text x="617" y="70" class="field">description</text>
<text x="779" y="70" class="datatype">string</text>
<rect x="612" y="80" width="162" height="20" class="field"/>
<rect x="774" y="80" width="64" height="20" class="datatype"/>
<text x="617" y="90" class="field">planning-application</text>
<text x="779" y="90" class="datatype">reference</text>
<rect x="612" y="100" width="162" height="20" class="field"/>
<rect x="774" y="100" width="64" height="20" class="datatype"/>
<text x="617" y="110" class="field">document-type</text>
<text x="779" y="110" class="datatype">reference</text>
<rect x="612" y="120" width="162" height="20" class="field"/>
<rect x="774" y="120" width="64" height="20" class="datatype"/>
<text x="617" y="130" class="field">documentation-url</text>
<text x="779" y="130" class="datatype">url</text>
<rect x="612" y="140" width="162" height="20" class="field"/>
<rect x="774" y="140" width="64" height="20" class="datatype"/>
<text x="617" y="150" class="field">document-url</text>
<text x="779" y="150" class="datatype">url</text>
<rect x="612" y="160" width="162" height="20" class="field"/>
<rect x="774" y="160" width="64" height="20" class="datatype"/>
<text x="617" y="170" class="field">notes</text>
<text x="779" y="170" class="datatype">text</text>
<rect x="612" y="180" width="162" height="20" class="field"/>
<rect x="774" y="180" width="64" height="20" class="datatype"/>
<text x="617" y="190" class="field">organisation</text>
<text x="779" y="190" class="datatype">curie</text>
<rect x="612" y="200" width="162" height="20" class="field"/>
<rect x="774" y="200" width="64" height="20" class="datatype"/>
<text x="617" y="210" class="field">entry-date</text>
<text x="779" y="210" class="datatype">datetime</text>
<rect x="612" y="220" width="162" height="20" class="field"/>
<rect x="774" y="220" width="64" height="20" class="datatype"/>
<text x="617" y="230" class="field">start-date</text>
<text x="779" y="230" class="datatype">datetime</text>
</g>
</svg>