<svg xmlns="http://www.w3.org/2000/svg" width="226" height="400">
<defs>
    <style>
    text{font-family:sans-serif; font-size:10px; dominant-baseline:middle;}
    text.name{fill:#fff;font-weight:700;text-anchor:middle}
    rect.name{fill:#0b0c0c; stroke:#0b0c0c;}
    rect{fill:#fff;stroke:#b1b4b6;}
    text.field{fill:#0b0c0c;}
    text.datatype{fill:#0b0c0c;}
    .line{stroke:#0b0c0c;}
    </style>
    <marker id="start-dot" markerWidth="6" markerHeight="6" refX="4" refY="3" markerUnits="strokeWidth">
    <circle cx="3" cy="3" r="2" fill="#fff" stroke="#0b0c0c"/>
    </marker>
    <marker id="end-dot" markerWidth="6" markerHeight="6" refX="2" refY="3" markerUnits="strokeWidth">
    <circle cx="3" cy="3" r="2" fill="#0b0c0c" />
    </marker>
    </defs>
<g>
<rect x="0" y="0" width="226" height="20" class="name"/>
<text x="113" y="10" class="name">asset-of-community-value</text>
<rect x="0" y="20" width="162" height="20" class="field"/>
<rect x="162" y="20" width="64" height="20" class="datatype"/>
<text x="5" y="30" class="field">reference</text>
<text x="167" y="30" class="datatype">string</text>
<rect x="0" y="40" width="162" height="20" class="field"/>
<rect x="162" y="40" width="64" height="20" class="datatype"/>
<text x="5" y="50" class="field">name</text>
<text x="167" y="50" class="datatype">string</text>
<rect x="0" y="60" width="162" height="20" class="field"/>
<rect x="162" y="60" width="64" height="20" class="datatype"/>
<text x="5" y="70" class="field">address-text</text>
<text x="167" y="70" class="datatype">string</text>
<rect x="0" y="80" width="162" height="20" class="field"/>
<rect x="162" y="80" width="64" height="20" class="datatype"/>
<text x="5" y="90" class="field">description</text>
<text x="167" y="90" class="datatype">string</text>
<rect x="0" y="100" width="162" height="20" class="field"/>
<rect x="162" y="100" width="64" height="20" class="datatype"/>
<text x="5" y="110" class="field">point</text>
<text x="167" y="110" class="datatype">point</text>
<rect x="0" y="120" width="162" height="20" class="field"/>
<rect x="162" y="120" width="64" height="20" class="datatype"/>
<text x="5" y="130" class="field">geometry</text>
<text x="167" y="130" class="datatype">multipolygon</text>
<rect x="0" y="140" width="162" height="20" class="field"/>
<rect x="162" y="140" width="64" height="20" class="datatype"/>
<text x="5" y="150" class="field">organisation</text>
<text x="167" y="150" class="datatype">curie</text>
<rect x="0" y="160" width="162" height="20" class="field"/>
<rect x="162" y="160" width="64" height="20" class="datatype"/>
<text x="5" y="170" class="field">nomination-date</text>
<text x="167" y="170" class="datatype">datetime</text>
<rect x="0" y="180" width="162" height="20" class="field"/>
<rect x="162" y="180" width="64" height="20" class="datatype"/>
<text x="5" y="190" class="field">nominating-group</text>
<text x="167" y="190" class="datatype">string</text>
<rect x="0" y="200" width="162" height="20" class="field"/>
<rect x="162" y="200" width="64" height="20" class="datatype"/>
<text x="5" y="210" class="field">decision</text>
<text x="167" y="210" class="datatype">string</text>
<rect x="0" y="220" width="162" height="20" class="field"/>
<rect x="162" y="220" width="64" height="20" class="datatype"/>
<text x="5" y="230" class="field">decision-date</text>
<text x="167" y="230" class="datatype">datetime</text>
<rect x="0" y="240" width="162" height="20" class="field"/>
<rect x="162" y="240" width="64" height="20" class="datatype"/>
<text x="5" y="250" class="field">expiry-date</text>
<text x="167" y="250" class="datatype">datetime</text>
<rect x="0" y="260" width="162" height="20" class="field"/>
<rect x="162" y="260" width="64" height="20" class="datatype"/>
<text x="5" y="270" class="field">notification-to-sell-date</text>
<text x="167" y="270" class="datatype">datetime</text>
<rect x="0" y="280" width="162" height="20" class="field"/>
<rect x="162" y="280" width="64" height="20" class="datatype"/>
<text x="5" y="290" class="field">interested-group</text>
<text x="167" y="290" class="datatype">string</text>
<rect x="0" y="300" width="162" height="20" class="field"/>
<rect x="162" y="300" width="64" height="20" class="datatype"/>
<text x="5" y="310" class="field">protected-period-start-date</text>
<text x="167" y="310" class="datatype">datetime</text>
<rect x="0" y="320" width="162" height="20" class="field"/>
<rect x="162" y="320" width="64" height="20" class="datatype"/>
<text x="5" y="330" class="field">notes</text>
<text x="167" y="330" class="datatype">text</text>
<rect x="0" y="340" width="162" height="20" class="field"/>
<rect x="162" y="340" width="64" height="20" class="datatype"/>
<text x="5" y="350" class="field">entry-date</text>
<text x="167" y="350" class="datatype">datetime</text>
<rect x="0" y="360" width="162" height="20" class="field"/>
<rect x="162" y="360" width="64" height="20" class="datatype"/>
<text x="5" y="370" class="field">start-date</text>
<text x="167" y="370" class="datatype">datetime</text>
<rect x="0" y="380" width="162" height="20" class="field"/>
<rect x="162" y="380" width="64" height="20" class="datatype"/>
<text x="5" y="390" class="field">end-date</text>
<text x="167" y="390" class="datatype">datetime</text>
</g>
</svg>