<svg xmlns="http://www.w3.org/2000/svg" width="532" height="180">
<defs>
    <style>
    text{font-family:sans-serif; font-size:10px; dominant-baseline:middle;}
    text.name{fill:#fff;font-weight:700;text-anchor:middle}
    rect.name{fill:#0b0c0c; stroke:#0b0c0c;}
    rect{fill:#fff;stroke:#b1b4b6;}
    text.field{fill:#0b0c0c;}
    text.datatype{fill:#0b0c0c;}
    .line{stroke:#0b0c0c;}
    </style>
    <marker id="start-dot" markerWidth="6" markerHeight="6" refX="4" refY="3" markerUnits="strokeWidth">
    <circle cx="3" cy="3" r="2" fill="#fff" stroke="#0b0c0c"/>
    </marker>
    <marker id="end-dot" markerWidth="6" markerHeight="6" refX="2" refY="3" markerUnits="strokeWidth">
    <circle cx="3" cy="3" r="2" fill="#0b0c0c" />
    </marker>
    </defs>
<path class="line" fill="none" stroke-width="2" marker-start="url(#start-dot)" marker-end="url(#end-dot)" d="M 306 70 C 266.0 70 266.0 30 226 30"/>
<g>
<rect x="0" y="0" width="226" height="20" class="name"/>
<text x="113" y="10" class="name">development-policy</text>
<rect x="0" y="20" width="162" height="20" class="field"/>
<rect x="162" y="20" width="64" height="20" class="datatype"/>
<text x="5" y="30" class="field">reference</text>
<text x="167" y="30" class="datatype">string</text>
<rect x="0" y="40" width="162" height="20" class="field"/>
<rect x="162" y="40" width="64" height="20" class="datatype"/>
<text x="5" y="50" class="field">name</text>
<text x="167" y="50" class="datatype">string</text>
<rect x="0" y="60" width="162" height="20" class="field"/>
<rect x="162" y="60" width="64" height="20" class="datatype"/>
<text x="5" y="70" class="field">development-plan-document</text>
<text x="167" y="70" class="datatype">reference</text>
<rect x="0" y="80" width="162" height="20" class="field"/>
<rect x="162" y="80" width="64" height="20" class="datatype"/>
<text x="5" y="90" class="field">development-policy-categories</text>
<text x="167" y="90" class="datatype">reference*</text>
<rect x="0" y="100" width="162" height="20" class="field"/>
<rect x="162" y="100" width="64" height="20" class="datatype"/>
<text x="5" y="110" class="field">organisation</text>
<text x="167" y="110" class="datatype">curie</text>
<rect x="0" y="120" width="162" height="20" class="field"/>
<rect x="162" y="120" width="64" height="20" class="datatype"/>
<text x="5" y="130" class="field">entry-date</text>
<text x="167" y="130" class="datatype">datetime</text>
<rect x="0" y="140" width="162" height="20" class="field"/>
<rect x="162" y="140" width="64" height="20" class="datatype"/>
<text x="5" y="150" class="field">start-date</text>
<text x="167" y="150" class="datatype">datetime</text>
<rect x="0" y="160" width="162" height="20" class="field"/>
<rect x="162" y="160" width="64" height="20" class="datatype"/>
<text x="5" y="170" class="field">end-date</text>
<text x="167" y="170" class="datatype">datetime</text>
</g>
<g>
<rect x="306" y="0" width="226" height="20" class="name"/>
<text x="419" y="10" class="name">development-policy-area</text>
<rect x="306" y="20" width="162" height="20" class="field"/>
<rect x="468" y="20" width="64" height="20" class="datatype"/>
<text x="311" y="30" class="field">reference</text>
<text x="473" y="30" class="datatype">string</text>
<rect x="306" y="40" width="162" height="20" class="field"/>
<rect x="468" y="40" width="64" height="20" class="datatype"/>
<text x="311" y="50" class="field">name</text>
<text x="473" y="50" class="datatype">string</text>
<rect x="306" y="60" width="162" height="20" class="field"/>
<rect x="468" y="60" width="64" height="20" class="datatype"/>
<text x="311" y="70" class="field">development-policies</text>
<text x="473" y="70" class="datatype">reference*</text>
<rect x="306" y="80" width="162" height="20" class="field"/>
<rect x="468" y="80" width="64" height="20" class="datatype"/>
<text x="311" y="90" class="field">geometry</text>
<text x="473" y="90" class="datatype">multipolygon</text>
<rect x="306" y="100" width="162" height="20" class="field"/>
<rect x="468" y="100" width="64" height="20" class="datatype"/>
<text x="311" y="110" class="field">organisation</text>
<text x="473" y="110" class="datatype">curie</text>
<rect x="306" y="120" width="162" height="20" class="field"/>
<rect x="468" y="120" width="64" height="20" class="datatype"/>
<text x="311" y="130" class="field">entry-date</text>
<text x="473" y="130" class="datatype">datetime</text>
<rect x="306" y="140" width="162" height="20" class="field"/>
<rect x="468" y="140" width="64" height="20" class="datatype"/>
<text x="311" y="150" class="field">start-date</text>
<text x="473" y="150" class="datatype">datetime</text>
<rect x="306" y="160" width="162" height="20" class="field"/>
<rect x="468" y="160" width="64" height="20" class="datatype"/>
<text x="311" y="170" class="field">end-date</text>
<text x="473" y="170" class="datatype">datetime</text>
</g>
</svg>