<svg xmlns="http://www.w3.org/2000/svg" width="1144" height="640">
<defs>
    <style>
    text{font-family:sans-serif; font-size:10px; dominant-baseline:middle;}
    text.name{fill:#fff;font-weight:700;text-anchor:middle}
    rect.name{fill:#0b0c0c; stroke:#0b0c0c;}
    rect{fill:#fff;stroke:#b1b4b6;}
    text.field{fill:#0b0c0c;}
    text.datatype{fill:#0b0c0c;}
    .line{stroke:#0b0c0c;}
    </style>
    <marker id="start-dot" markerWidth="6" markerHeight="6" refX="4" refY="3" markerUnits="strokeWidth">
    <circle cx="3" cy="3" r="2" fill="#fff" stroke="#0b0c0c"/>
    </marker>
    <marker id="end-dot" markerWidth="6" markerHeight="6" refX="2" refY="3" markerUnits="strokeWidth">
    <circle cx="3" cy="3" r="2" fill="#0b0c0c" />
    </marker>
    </defs>
<path class="line" fill="none" stroke-width="2" marker-start="url(#start-dot)" marker-end="url(#end-dot)" d="M 306 130 C 266.0 130 266.0 30 226 30"/>
<path class="line" fill="none" stroke-width="2" marker-start="url(#start-dot)" marker-end="url(#end-dot)" d="M 612 90 C 572.0 90 572.0 30 532 30"/>
<path class="line" fill="none" stroke-width="2" marker-start="url(#start-dot)" marker-end="url(#end-dot)" d="M 612 370 C 572.0 370 572.0 30 532 30"/>
<g>
<rect x="0" y="0" width="226" height="20" class="name"/>
<text x="113" y="10" class="name">local-plan-boundary</text>
<rect x="0" y="20" width="162" height="20" class="field"/>
<rect x="162" y="20" width="64" height="20" class="datatype"/>
<text x="5" y="30" class="field">reference</text>
<text x="167" y="30" class="datatype">string</text>
<rect x="0" y="40" width="162" height="20" class="field"/>
<rect x="162" y="40" width="64" height="20" class="datatype"/>
<text x="5" y="50" class="field">name</text>
<text x="167" y="50" class="datatype">string</text>
<rect x="0" y="60" width="162" height="20" class="field"/>
<rect x="162" y="60" width="64" height="20" class="datatype"/>
<text x="5" y="70" class="field">geometry</text>
<text x="167" y="70" class="datatype">multipolygon</text>
<rect x="0" y="80" width="162" height="20" class="field"/>
<rect x="162" y="80" width="64" height="20" class="datatype"/>
<text x="5" y="90" class="field">description</text>
<text x="167" y="90" class="datatype">string</text>
<rect x="0" y="100" width="162" height="20" class="field"/>
<rect x="162" y="100" width="64" height="20" class="datatype"/>
<text x="5" y="110" class="field">organisations</text>
<text x="167" y="110" class="datatype">curie*</text>
<rect x="0" y="120" width="162" height="20" class="field"/>
<rect x="162" y="120" width="64" height="20" class="datatype"/>
<text x="5" y="130" class="field">entry-date</text>
<text x="167" y="130" class="datatype">datetime</text>
<rect x="0" y="140" width="162" height="20" class="field"/>
<rect x="162" y="140" width="64" height="20" class="datatype"/>
<text x="5" y="150" class="field">start-date</text>
<text x="167" y="150" class="datatype">datetime</text>
<rect x="0" y="160" width="162" height="20" class="field"/>
<rect x="162" y="160" width="64" height="20" class="datatype"/>
<text x="5" y="170" class="field">end-date</text>
<text x="167" y="170" class="datatype">datetime</text>
</g>
<g>
<rect x="306" y="0" width="226" height="20" class="name"/>
<text x="419" y="10" class="name">local-plan</text>
<rect x="306" y="20" width="162" height="20" class="field"/>
<rect x="468" y="20" width="64" height="20" class="datatype"/>
<text x="311" y="30" class="field">reference</text>
<text x="473" y="30" class="datatype">string</text>
<rect x="306" y="40" width="162" height="20" class="field"/>
<rect x="468" y="40" width="64" height="20" class="datatype"/>
<text x="311" y="50" class="field">name</text>
<text x="473" y="50" class="datatype">string</text>
<rect x="306" y="60" width="162" height="20" class="field"/>
<rect x="468" y="60" width="64" height="20" class="datatype"/>
<text x="311" y="70" class="field">description</text>
<text x="473" y="70" class="datatype">string</text>
<rect x="306" y="80" width="162" height="20" class="field"/>
<rect x="468" y="80" width="64" height="20" class="datatype"/>
<text x="311" y="90" class="field">period-start-date</text>
<text x="473" y="90" class="datatype">datetime</text>
<rect x="306" y="100" width="162" height="20" class="field"/>
<rect x="468" y="100" width="64" height="20" class="datatype"/>
<text x="311" y="110" class="field">period-end-date</text>
<text x="473" y="110" class="datatype">datetime</text>
<rect x="306" y="120" width="162" height="20" class="field"/>
<rect x="468" y="120" width="64" height="20" class="datatype"/>
<text x="311" y="130" class="field">local-plan-boundary</text>
<text x="473" y="130" class="datatype">reference</text>
<rect x="306" y="140" width="162" height="20" class="field"/>
<rect x="468" y="140" width="64" height="20" class="datatype"/>
<text x="311" y="150" class="field">documentation-url</text>
<text x="473" y="150" class="datatype">url</text>
<rect x="306" y="160" width="162" height="20" class="field"/>
<rect x="468" y="160" width="64" height="20" class="datatype"/>
<text x="311" y="170" class="field">adopted-date</text>
<text x="473" y="170" class="datatype">datetime</text>
<rect x="306" y="180" width="162" height="20" class="field"/>
<rect x="468" y="180" width="64" height="20" class="datatype"/>
<text x="311" y="190" class="field">organisations</text>
<text x="473" y="190" class="datatype">curie*</text>
<rect x="306" y="200" width="162" height="20" class="field"/>
<rect x="468" y="200" width="64" height="20" class="datatype"/>
<text x="311" y="210" class="field">required-houses</text>
<text x="473" y="210" class="datatype">integer</text>
<rect x="306" y="220" width="162" height="20" class="field"/>
<rect x="468" y="220" width="64" height="20" class="datatype"/>
<text x="311" y="230" class="field">committed-houses</text>
<text x="473" y="230" class="datatype">integer</text>
<rect x="306" y="240" width="162" height="20" class="field"/>
<rect x="468" y="240" width="64" height="20" class="datatype"/>
<text x="311" y="250" class="field">allocated-houses</text>
<text x="473" y="250" class="datatype">integer</text>
<rect x="306" y="260" width="162" height="20" class="field"/>
<rect x="468" y="260" width="64" height="20" class="datatype"/>
<text x="311" y="270" class="field">entry-date</text>
<text x="473" y="270" class="datatype">datetime</text>
<rect x="306" y="280" width="162" height="20" class="field"/>
<rect x="468" y="280" width="64" height="20" class="datatype"/>
<text x="311" y="290" class="field">start-date</text>
<text x="473" y="290" class="datatype">datetime</text>
<rect x="306" y="300" width="162" height="20" class="field"/>
<rect x="468" y="300" width="64" height="20" class="datatype"/>
<text x="311" y="310" class="field">end-date</text>
<text x="473" y="310" class="datatype">datetime</text>
</g>
<g>
<rect x="612" y="0" width="226" height="20" class="name"/>
<text x="725" y="10" class="name">local-plan-document</text>
<rect x="612" y="20" width="162" height="20" class="field"/>
<rect x="774" y="20" width="64" height="20" class="datatype"/>
<text x="617" y="30" class="field">reference</text>
<text x="779" y="30" class="datatype">string</text>
<rect x="612" y="40" width="162" height="20" class="field"/>
<rect x="774" y="40" width="64" height="20" class="datatype"/>
<text x="617" y="50" class="field">name</text>
<text x="779" y="50" class="datatype">string</text>
<rect x="612" y="60" width="162" height="20" class="field"/>
<rect x="774" y="60" width="64" height="20" class="datatype"/>
<text x="617" y="70" class="field">description</text>
<text x="779" y="70" class="datatype">string</text>
<rect x="612" y="80" width="162" height="20" class="field"/>
<rect x="774" y="80" width="64" height="20" class="datatype"/>
<text x="617" y="90" class="field">local-plan</text>
<text x="779" y="90" class="datatype">reference</text>
<rect x="612" y="100" width="162" height="20" class="field"/>
<rect x="774" y="100" width="64" height="20" class="datatype"/>
<text x="617" y="110" class="field">document-types</text>
<text x="779" y="110" class="datatype">reference*</text>
<rect x="612" y="120" width="162" height="20" class="field"/>
<rect x="774" y="120" width="64" height="20" class="datatype"/>
<text x="617" y="130" class="field">documentation-url</text>
<text x="779" y="130" class="datatype">url</text>
<rect x="612" y="140" width="162" height="20" class="field"/>
<rect x="774" y="140" width="64" height="20" class="datatype"/>
<text x="617" y="150" class="field">document-url</text>
<text x="779" y="150" class="datatype">url</text>
<rect x="612" y="160" width="162" height="20" class="field"/>
<rect x="774" y="160" width="64" height="20" class="datatype"/>
<text x="617" y="170" class="field">organisations</text>
<text x="779" y="170" class="datatype">curie*</text>
<rect x="612" y="180" width="162" height="20" class="field"/>
<rect x="774" y="180" width="64" height="20" class="datatype"/>
<text x="617" y="190" class="field">entry-date</text>
<text x="779" y="190" class="datatype">datetime</text>
<rect x="612" y="200" width="162" height="20" class="field"/>
<rect x="774" y="200" width="64" height="20" class="datatype"/>
<text x="617" y="210" class="field">start-date</text>
<text x="779" y="210" class="datatype">datetime</text>
<rect x="612" y="220" width="162" height="20" class="field"/>
<rect x="774" y="220" width="64" height="20" class="datatype"/>
<text x="617" y="230" class="field">end-date</text>
<text x="779" y="230" class="datatype">datetime</text>
</g>
<g>
<rect x="612" y="300" width="226" height="20" class="name"/>
<text x="725" y="310" class="name">local-plan-timetable</text>
<rect x="612" y="320" width="162" height="20" class="field"/>
<rect x="774" y="320" width="64" height="20" class="datatype"/>
<text x="617" y="330" class="field">reference</text>
<text x="779" y="330" class="datatype">string</text>
<rect x="612" y="340" width="162" height="20" class="field"/>
<rect x="774" y="340" width="64" height="20" class="datatype"/>
<text x="617" y="350" class="field">name</text>
<text x="779" y="350" class="datatype">string</text>
<rect x="612" y="360" width="162" height="20" class="field"/>
<rect x="774" y="360" width="64" height="20" class="datatype"/>
<text x="617" y="370" class="field">local-plan</text>
<text x="779" y="370" class="datatype">reference</text>
<rect x="612" y="380" width="162" height="20" class="field"/>
<rect x="774" y="380" width="64" height="20" class="datatype"/>
<text x="617" y="390" class="field">local-plan-event</text>
<text x="779" y="390" class="datatype">reference</text>
<rect x="612" y="400" width="162" height="20" class="field"/>
<rect x="774" y="400" width="64" height="20" class="datatype"/>
<text x="617" y="410" class="field">event-date</text>
<text x="779" y="410" class="datatype">datetime</text>
<rect x="612" y="420" width="162" height="20" class="field"/>
<rect x="774" y="420" width="64" height="20" class="datatype"/>
<text x="617" y="430" class="field">notes</text>
<text x="779" y="430" class="datatype">text</text>
<rect x="612" y="440" width="162" height="20" class="field"/>
<rect x="774" y="440" width="64" height="20" class="datatype"/>
<text x="617" y="450" class="field">organisation</text>
<text x="779" y="450" class="datatype">curie</text>
<rect x="612" y="460" width="162" height="20" class="field"/>
<rect x="774" y="460" width="64" height="20" class="datatype"/>
<text x="617" y="470" class="field">entry-date</text>
<text x="779" y="470" class="datatype">datetime</text>
<rect x="612" y="480" width="162" height="20" class="field"/>
<rect x="774" y="480" width="64" height="20" class="datatype"/>
<text x="617" y="490" class="field">start-date</text>
<text x="779" y="490" class="datatype">datetime</text>
<rect x="612" y="500" width="162" height="20" class="field"/>
<rect x="774" y="500" width="64" height="20" class="datatype"/>
<text x="617" y="510" class="field">end-date</text>
<text x="779" y="510" class="datatype">datetime</text>
</g>
</svg>