<svg xmlns="http://www.w3.org/2000/svg" width="838" height="640">
<defs>
    <style>
    text{font-family:sans-serif; font-size:10px; dominant-baseline:middle;}
    text.name{fill:#fff;font-weight:700;text-anchor:middle}
    rect.name{fill:#0b0c0c; stroke:#0b0c0c;}
    rect{fill:#fff;stroke:#b1b4b6;}
    text.field{fill:#0b0c0c;}
    text.datatype{fill:#0b0c0c;}
    .line{stroke:#0b0c0c;}
    </style>
    <marker id="start-dot" markerWidth="6" markerHeight="6" refX="4" refY="3" markerUnits="strokeWidth">
    <circle cx="3" cy="3" r="2" fill="#fff" stroke="#0b0c0c"/>
    </marker>
    <marker id="end-dot" markerWidth="6" markerHeight="6" refX="2" refY="3" markerUnits="strokeWidth">
    <circle cx="3" cy="3" r="2" fill="#0b0c0c" />
    </marker>
    </defs>
<g>
<rect x="0" y="0" width="226" height="20" class="name"/>
<text x="113" y="10" class="name">tree-preservation-order</text>
<rect x="0" y="20" width="162" height="20" class="field"/>
<rect x="162" y="20" width="64" height="20" class="datatype"/>
<text x="5" y="30" class="field">reference</text>
<text x="167" y="30" class="datatype">string</text>
<rect x="0" y="40" width="162" height="20" class="field"/>
<rect x="162" y="40" width="64" height="20" class="datatype"/>
<text x="5" y="50" class="field">name</text>
<text x="167" y="50" class="datatype">string</text>
<rect x="0" y="60" width="162" height="20" class="field"/>
<rect x="162" y="60" width="64" height="20" class="datatype"/>
<text x="5" y="70" class="field">documentation-url</text>
<text x="167" y="70" class="datatype">url</text>
<rect x="0" y="80" width="162" height="20" class="field"/>
<rect x="162" y="80" width="64" height="20" class="datatype"/>
<text x="5" y="90" class="field">document-url</text>
<text x="167" y="90" class="datatype">url</text>
<rect x="0" y="100" width="162" height="20" class="field"/>
<rect x="162" y="100" width="64" height="20" class="datatype"/>
<text x="5" y="110" class="field">made-date</text>
<text x="167" y="110" class="datatype">datetime</text>
<rect x="0" y="120" width="162" height="20" class="field"/>
<rect x="162" y="120" width="64" height="20" class="datatype"/>
<text x="5" y="130" class="field">confirmed-date</text>
<text x="167" y="130" class="datatype">datetime</text>
<rect x="0" y="140" width="162" height="20" class="field"/>
<rect x="162" y="140" width="64" height="20" class="datatype"/>
<text x="5" y="150" class="field">notes</text>
<text x="167" y="150" class="datatype">text</text>
<rect x="0" y="160" width="162" height="20" class="field"/>
<rect x="162" y="160" width="64" height="20" class="datatype"/>
<text x="5" y="170" class="field">organisation</text>
<text x="167" y="170" class="datatype">curie</text>
<rect x="0" y="180" width="162" height="20" class="field"/>
<rect x="162" y="180" width="64" height="20" class="datatype"/>
<text x="5" y="190" class="field">entry-date</text>
<text x="167" y="190" class="datatype">datetime</text>
<rect x="0" y="200" width="162" height="20" class="field"/>
<rect x="162" y="200" width="64" height="20" class="datatype"/>
<text x="5" y="210" class="field">start-date</text>
<text x="167" y="210" class="datatype">datetime</text>
<rect x="0" y="220" width="162" height="20" class="field"/>
<rect x="162" y="220" width="64" height="20" class="datatype"/>
<text x="5" y="230" class="field">end-date</text>
<text x="167" y="230" class="datatype">datetime</text>
</g>
<g>
<rect x="306" y="0" width="226" height="20" class="name"/>
<text x="419" y="10" class="name">tree-preservation-zone</text>
<rect x="306" y="20" width="162" height="20" class="field"/>
<rect x="468" y="20" width="64" height="20" class="datatype"/>
<text x="311" y="30" class="field">reference</text>
<text x="473" y="30" class="datatype">string</text>
<rect x="306" y="40" width="162" height="20" class="field"/>
<rect x="468" y="40" width="64" height="20" class="datatype"/>
<text x="311" y="50" class="field">name</text>
<text x="473" y="50" class="datatype">string</text>
<rect x="306" y="60" width="162" height="20" class="field"/>
<rect x="468" y="60" width="64" height="20" class="datatype"/>
<text x="311" y="70" class="field">tree-preservation-order</text>
<text x="473" y="70" class="datatype">reference</text>
<rect x="306" y="80" width="162" height="20" class="field"/>
<rect x="468" y="80" width="64" height="20" class="datatype"/>
<text x="311" y="90" class="field">tree-preservation-zone-type</text>
<text x="473" y="90" class="datatype">reference</text>
<rect x="306" y="100" width="162" height="20" class="field"/>
<rect x="468" y="100" width="64" height="20" class="datatype"/>
<text x="311" y="110" class="field">geometry</text>
<text x="473" y="110" class="datatype">multipolygon</text>
<rect x="306" y="120" width="162" height="20" class="field"/>
<rect x="468" y="120" width="64" height="20" class="datatype"/>
<text x="311" y="130" class="field">point</text>
<text x="473" y="130" class="datatype">point</text>
<rect x="306" y="140" width="162" height="20" class="field"/>
<rect x="468" y="140" width="64" height="20" class="datatype"/>
<text x="311" y="150" class="field">notes</text>
<text x="473" y="150" class="datatype">text</text>
<rect x="306" y="160" width="162" height="20" class="field"/>
<rect x="468" y="160" width="64" height="20" class="datatype"/>
<text x="311" y="170" class="field">organisation</text>
<text x="473" y="170" class="datatype">curie</text>
<rect x="306" y="180" width="162" height="20" class="field"/>
<rect x="468" y="180" width="64" height="20" class="datatype"/>
<text x="311" y="190" class="field">entry-date</text>
<text x="473" y="190" class="datatype">datetime</text>
<rect x="306" y="200" width="162" height="20" class="field"/>
<rect x="468" y="200" width="64" height="20" class="datatype"/>
<text x="311" y="210" class="field">start-date</text>
<text x="473" y="210" class="datatype">datetime</text>
<rect x="306" y="220" width="162" height="20" class="field"/>
<rect x="468" y="220" width="64" height="20" class="datatype"/>
<text x="311" y="230" class="field">end-date</text>
<text x="473" y="230" class="datatype">datetime</text>
</g>
<g>
<rect x="306" y="300" width="226" height="20" class="name"/>
<text x="419" y="310" class="name">tree</text>
<rect x="306" y="320" width="162" height="20" class="field"/>
<rect x="468" y="320" width="64" height="20" class="datatype"/>
<text x="311" y="330" class="field">reference</text>
<text x="473" y="330" class="datatype">string</text>
<rect x="306" y="340" width="162" height="20" class="field"/>
<rect x="468" y="340" width="64" height="20" class="datatype"/>
<text x="311" y="350" class="field">name</text>
<text x="473" y="350" class="datatype">string</text>
<rect x="306" y="360" width="162" height="20" class="field"/>
<rect x="468" y="360" width="64" height="20" class="datatype"/>
<text x="311" y="370" class="field">tree-preservation-order</text>
<text x="473" y="370" class="datatype">reference</text>
<rect x="306" y="380" width="162" height="20" class="field"/>
<rect x="468" y="380" width="64" height="20" class="datatype"/>
<text x="311" y="390" class="field">uprn</text>
<text x="473" y="390" class="datatype">reference</text>
<rect x="306" y="400" width="162" height="20" class="field"/>
<rect x="468" y="400" width="64" height="20" class="datatype"/>
<text x="311" y="410" class="field">address-text</text>
<text x="473" y="410" class="datatype">string</text>
<rect x="306" y="420" width="162" height="20" class="field"/>
<rect x="468" y="420" width="64" height="20" class="datatype"/>
<text x="311" y="430" class="field">point</text>
<text x="473" y="430" class="datatype">point</text>
<rect x="306" y="440" width="162" height="20" class="field"/>
<rect x="468" y="440" width="64" height="20" class="datatype"/>
<text x="311" y="450" class="field">geometry</text>
<text x="473" y="450" class="datatype">multipolygon</text>
<rect x="306" y="460" width="162" height="20" class="field"/>
<rect x="468" y="460" width="64" height="20" class="datatype"/>
<text x="311" y="470" class="field">notes</text>
<text x="473" y="470" class="datatype">text</text>
<rect x="306" y="480" width="162" height="20" class="field"/>
<rect x="468" y="480" width="64" height="20" class="datatype"/>
<text x="311" y="490" class="field">organisation</text>
<text x="473" y="490" class="datatype">curie</text>
<rect x="306" y="500" width="162" height="20" class="field"/>
<rect x="468" y="500" width="64" height="20" class="datatype"/>
<text x="311" y="510" class="field">felled-date</text>
<text x="473" y="510" class="datatype">datetime</text>
<rect x="306" y="520" width="162" height="20" class="field"/>
<rect x="468" y="520" width="64" height="20" class="datatype"/>
<text x="311" y="530" class="field">entry-date</text>
<text x="473" y="530" class="datatype">datetime</text>
<rect x="306" y="540" width="162" height="20" class="field"/>
<rect x="468" y="540" width="64" height="20" class="datatype"/>
<text x="311" y="550" class="field">start-date</text>
<text x="473" y="550" class="datatype">datetime</text>
<rect x="306" y="560" width="162" height="20" class="field"/>
<rect x="468" y="560" width="64" height="20" class="datatype"/>
<text x="311" y="570" class="field">end-date</text>
<text x="473" y="570" class="datatype">datetime</text>
</g>
<path class="line" fill="none" stroke-width="2" marker-start="url(#start-dot)" marker-end="url(#end-dot)" d="M 306 70 C 266.0 70 266.0 30 226 30"/>
<path class="line" fill="none" stroke-width="2" marker-start="url(#start-dot)" marker-end="url(#end-dot)" d="M 306 370 C 266.0 370 266.0 30 226 30"/>
</svg>